<svg xmlns="http://www.w3.org/2000/svg" id="Layer_1" x="0" y="0" version="1.1" viewBox="0 0 64 64" xml:space="preserve"><linearGradient id="SVGID_1_" x1="32" x2="32" y1="638.167" y2="631.667" gradientTransform="matrix(1 0 0 -1 0 653)" gradientUnits="userSpaceOnUse"><stop offset="0" stop-color="#6dc7ff"></stop><stop offset="1" stop-color="#e6abff"></stop></linearGradient><path fill="url(#SVGID_1_)" d="M5,15h54v6H5V15z"></path><linearGradient id="SVGID_2_" x1="24" x2="24" y1="32.319" y2="38.298" gradientUnits="userSpaceOnUse"><stop offset="0" stop-color="#6dc7ff"></stop><stop offset="1" stop-color="#e6abff"></stop></linearGradient><path fill="url(#SVGID_2_)" d="M22,37.4l-1.2-1.1c-0.3-0.3-0.2-0.9,0.3-1l1.6-0.2l0.7-1.5c0.2-0.4,0.8-0.4,1,0l0.7,1.5l1.6,0.2 c0.5,0.1,0.6,0.6,0.3,1L26,37.4l0.3,1.6c0.1,0.5-0.4,0.8-0.8,0.6L24,38.9l-1.4,0.8c-0.4,0.2-0.9-0.1-0.8-0.6L22,37.4z"></path><g><linearGradient id="SVGID_3_" x1="14" x2="14" y1="13.298" y2="50.322" gradientUnits="userSpaceOnUse"><stop offset="0" stop-color="#1a6dff"></stop><stop offset="1" stop-color="#c822ff"></stop></linearGradient><rect width="14" height="2" x="7" y="17" fill="url(#SVGID_3_)"></rect><linearGradient id="SVGID_4_" x1="34" x2="34" y1="13.298" y2="50.322" gradientUnits="userSpaceOnUse"><stop offset="0" stop-color="#1a6dff"></stop><stop offset="1" stop-color="#c822ff"></stop></linearGradient><rect width="6" height="2" x="31" y="17" fill="url(#SVGID_4_)"></rect><linearGradient id="SVGID_5_" x1="26" x2="26" y1="13.298" y2="50.322" gradientUnits="userSpaceOnUse"><stop offset="0" stop-color="#1a6dff"></stop><stop offset="1" stop-color="#c822ff"></stop></linearGradient><rect width="6" height="2" x="23" y="17" fill="url(#SVGID_5_)"></rect><linearGradient id="SVGID_6_" x1="24" x2="24" y1="13.298" y2="50.322" gradientUnits="userSpaceOnUse"><stop offset="0" stop-color="#1a6dff"></stop><stop offset="1" stop-color="#c822ff"></stop></linearGradient><path fill="url(#SVGID_6_)" d="M32.3,31.8l-4.2-0.6l-1.9-3.8C25.8,26.5,25,26,24,26c-1,0-1.8,0.5-2.2,1.4l-1.9,3.8l-4.2,0.6 c-0.9,0.1-1.7,0.8-2,1.7c-0.3,0.9,0,1.9,0.6,2.5l3,2.9l-0.7,4.2c-0.2,0.9,0.2,1.9,1,2.4c0.4,0.3,1,0.5,1.5,0.5 c0.4,0,0.8-0.1,1.2-0.3l3.7-2l3.7,2c0.8,0.4,1.9,0.4,2.6-0.2c0.8-0.6,1.1-1.5,1-2.4l-0.7-4.1l3-2.9c0.7-0.7,0.9-1.6,0.6-2.5 C34,32.6,33.2,31.9,32.3,31.8z M32.3,34.6l-3.2,3.1c-0.4,0.4-0.5,0.9-0.5,1.4l0.8,4.4c0,0.2,0,0.4-0.2,0.5c-0.1,0.1-0.3,0.1-0.5,0 l-3.9-2.1c-0.2-0.1-0.5-0.2-0.7-0.2c-0.3,0-0.5,0.1-0.7,0.2l-3.9,2.1c-0.2,0.1-0.4,0.1-0.5,0c-0.1-0.1-0.2-0.3-0.2-0.5l0.8-4.4 c0.1-0.5-0.1-1-0.5-1.4l-3.2-3.1c-0.1-0.1-0.2-0.3-0.1-0.5c0.1-0.2,0.2-0.3,0.4-0.3l4.4-0.6c0.5-0.1,1-0.4,1.2-0.9l2-4 c0.2-0.3,0.7-0.3,0.9,0l2,4c0.2,0.5,0.7,0.8,1.2,0.9l4.4,0.6c0.2,0,0.3,0.2,0.4,0.3C32.4,34.3,32.4,34.4,32.3,34.6z"></path><linearGradient id="SVGID_7_" x1="32" x2="32" y1="13.298" y2="50.322" gradientUnits="userSpaceOnUse"><stop offset="0" stop-color="#1a6dff"></stop><stop offset="1" stop-color="#c822ff"></stop></linearGradient><path fill="url(#SVGID_7_)" d="M58,13H6c-1.7,0-3,1.3-3,3v6v1v10h1c1.7,0,3,1.3,3,3s-1.3,3-3,3H3v9c0,1.7,1.3,3,3,3h52c1.7,0,3-1.3,3-3v-9h-1 c-1.7,0-3-1.3-3-3c0-1.7,1.6-3,3-3h1V23v-1v-6C61,14.3,59.7,13,58,13z M59,21H39v1v1v6h2v-6h18v8.1c-2.2,0.5-4,2.6-4,4.9 c0,2.4,1.7,4.4,4,4.9V48c0,0.6-0.4,1-1,1H41v-6h-2v6H6c-0.6,0-1-0.4-1-1v-7.1c2.3-0.5,4-2.5,4-4.9s-1.7-4.4-4-4.9V23h32v-2H5v-5 c0-0.6,0.4-1,1-1h52c0.6,0,1,0.4,1,1V21z"></path><linearGradient id="SVGID_8_" x1="50" x2="50" y1="13.298" y2="50.322" gradientUnits="userSpaceOnUse"><stop offset="0" stop-color="#1a6dff"></stop><stop offset="1" stop-color="#c822ff"></stop></linearGradient><rect width="12" height="2" x="44" y="27" fill="url(#SVGID_8_)"></rect><linearGradient id="SVGID_9_" x1="40" x2="40" y1="13.298" y2="50.322" gradientUnits="userSpaceOnUse"><stop offset="0" stop-color="#1a6dff"></stop><stop offset="1" stop-color="#c822ff"></stop></linearGradient><rect width="2" height="6" x="39" y="33" fill="url(#SVGID_9_)"></rect><linearGradient id="SVGID_10_" x1="48" x2="48" y1="13.298" y2="50.322" gradientUnits="userSpaceOnUse"><stop offset="0" stop-color="#1a6dff"></stop><stop offset="1" stop-color="#c822ff"></stop></linearGradient><rect width="8" height="2" x="44" y="31" fill="url(#SVGID_10_)"></rect><linearGradient id="SVGID_11_" x1="48" x2="48" y1="13.298" y2="50.322" gradientUnits="userSpaceOnUse"><stop offset="0" stop-color="#1a6dff"></stop><stop offset="1" stop-color="#c822ff"></stop></linearGradient><rect width="8" height="2" x="44" y="35" fill="url(#SVGID_11_)"></rect><linearGradient id="SVGID_12_" x1="48" x2="48" y1="13.298" y2="50.322" gradientUnits="userSpaceOnUse"><stop offset="0" stop-color="#1a6dff"></stop><stop offset="1" stop-color="#c822ff"></stop></linearGradient><rect width="8" height="2" x="44" y="39" fill="url(#SVGID_12_)"></rect></g></svg>